<?xml version="1.0" encoding="UTF-8"?>
<!DOCTYPE svg PUBLIC "-//W3C//DTD SVG 1.1//EN" "http://www.w3.org/Graphics/SVG/1.1/DTD/svg11.dtd">
<!-- Creator: CorelDRAW 2020 (64-Bit) -->
<svg xmlns="http://www.w3.org/2000/svg" xml:space="preserve" width="1100px" height="283px" version="1.1" style="shape-rendering:geometricPrecision; text-rendering:geometricPrecision; image-rendering:optimizeQuality; fill-rule:evenodd; clip-rule:evenodd"
viewBox="0 0 1100 283.07"
 xmlns:xlink="http://www.w3.org/1999/xlink"
 xmlns:xodm="http://www.corel.com/coreldraw/odm/2003">
 <defs>
  <style type="text/css">
   <![CDATA[
    .fil0 {fill:none}
    .fil1 {fill:black}
   ]]>
  </style>
 </defs>
 <g id="Layer_x0020_1">
  <metadata id="CorelCorpID_0Corel-Layer"/>
  <rect class="fil0" x="-0.001" y="0.465" width="1100" height="283.07"/>
  <g id="_2900688099408">
   <path class="fil1" d="M604.278 140.043l32.123 0c4.663,-9.477 7.434,-19.279 27.52,-19.016 7.202,0.095 13.583,2.252 17.535,5.956 4.414,4.137 5.497,13.476 1.552,18.699 -11.561,15.303 -83.745,-3.017 -94.942,44.034 -7.19,30.212 19.256,46.085 47.213,43.123 16.991,-1.8 22.814,-7.865 33.003,-14.921l0 11.403 35.272 0.442c-7.599,-36.558 35.183,-102.669 1.684,-123.575 -22.287,-13.91 -71.088,-12.123 -89.448,7.241 -4.051,4.273 -12.535,17.243 -11.512,26.614zm73.91 28.372c-25.507,8.869 -47.913,2.588 -54.212,18.173 -9.572,23.68 23.047,29.415 39.389,15.417 6.84,-5.858 12.488,-21.321 14.823,-33.59z"/>
   <path class="fil1" d="M220.53 140.042l31.372 0c2.204,-1.352 1.175,-0.521 2.425,-3.052 4.878,-9.875 9.234,-15.879 25.578,-15.963 20.411,-0.105 26.206,14.068 20.196,23.693 -10.773,17.251 -85.055,-2.713 -95.461,45.475 -8.245,38.177 35.599,51.901 66.158,37.272 7.078,-3.388 9.198,-6.458 13.983,-9.927l0.147 12.251 34.974 0c-2.704,-19.798 5.437,-45.076 9.708,-64.557 5.082,-23.183 11.744,-45.29 -6.776,-58.603 -17.447,-12.541 -95.281,-21.337 -102.304,33.411zm74.282 28.279c-25.745,8.3 -26.527,3.707 -40.404,7.715 -7.192,2.076 -11.26,4.913 -13.647,10.406 -9.92,22.827 21.697,30.233 38.742,15.72 8.138,-6.929 12.499,-20.33 15.309,-33.841z"/>
   <path class="fil1" d="M437.405 212.042l-3.492 17.637 34.017 0.114 26.736 -128.892 -35.29 -0.068c-5.137,19.2 -8.702,40.796 -12.877,60.34 -4.693,21.972 -10.325,38.646 -30.663,43.308 -10.016,2.297 -21.959,-1.052 -23.823,-10.095 -2.209,-10.72 17.064,-81.325 17.136,-93.587l-34.835 0.024c-4.39,16.652 -7.482,35.261 -11.03,51.999 -6.074,28.652 -25.404,82.275 31.627,80.31 16.144,-0.556 33.641,-9.181 42.494,-21.09z"/>
   <path class="fil1" d="M107.055 118.517l3.664 -17.55 -33.625 -0.177 -27.089 128.763c42.086,0.316 34.424,4.379 38.276,-13.564l9.62 -45.421c4.553,-21.668 10.201,-39.071 29.732,-44.265 11.09,-2.95 23.505,0.988 25.129,10.385 1.081,6.26 -3.489,24.899 -4.922,31.715 -4.221,20.083 -9.09,40.96 -12.652,61.075l33.714 0.337c2.822,-1.815 1.88,-1.403 2.742,-5.455 4.964,-23.335 20.367,-86.425 17.591,-101.273 -5.765,-30.839 -45.581,-29.684 -64.052,-19.252 -11.948,6.748 -13.023,10.825 -18.128,14.682z"/>
   <path class="fil1" d="M532.781 100.611c-23.871,1.678 -21.148,-8.173 -26.282,23.929l20.716 0 -21.937 104.774 35.432 0.472 22.038 -105.225 25.155 -0.063 5.236 -23.629 -24.928 -0.142c5.37,-30.709 14.809,-22.009 32.374,-23.5l5.235 -25.094c-49.513,-4.701 -65.106,1.174 -73.039,48.478z"/>
   <path class="fil1" d="M728.938 229.608l33.965 0.183c2.804,-0.917 9.527,-38.529 10.635,-43.585 3.289,-15.006 6.273,-29.555 9.475,-44.492 5.024,-23.438 15.748,-69.359 19.105,-90.166l-35.403 0 -37.777 178.06z"/>
   <path class="fil1" d="M901.902 214.046c-33.698,0 -29.867,-21.265 -32.376,-23.969 -1.955,-2.108 -15.979,-1.031 -19.185,-1.031 -1.439,6.375 0.914,15.119 3.418,20.623 3.438,7.557 5.669,9.84 11.372,13.671 10.685,7.178 25.139,10.275 40.788,9.103 20.799,-1.558 39.735,-10.959 44.122,-30.68 9.682,-43.523 -46.072,-42.767 -61.617,-61.756 -4.7,-5.741 -2.59,-14.373 2.045,-17.909 8.077,-6.161 46.114,-13.748 47.312,16.693l20.496 0c-1.088,-28.147 -19.083,-40.538 -45.391,-40.842 -24.505,-0.283 -48.39,12.711 -47.606,37.484 1.287,40.634 70.38,32.389 64.95,62.529 -2.084,11.571 -14.519,16.084 -28.328,16.084z"/>
   <path class="fil1" d="M1002.902 100.799l-18.999 0 -3.965 18.635 20.75 0.17c-3.839,23.388 -9.875,48.547 -14.68,71.971 -2.526,12.311 -6.012,25.913 3.456,33.426 8.774,6.963 23.266,7.237 35.439,4.759 2.706,-4.599 3.281,-13.407 4.089,-19.368 -32.641,7.447 -24.116,-11.653 -19.139,-34.905 2.024,-9.457 3.761,-18.749 5.739,-28.186 1.026,-4.9 1.916,-9.452 2.873,-14.128 0.553,-2.708 0.985,-4.876 1.524,-7.589 1.571,-7.905 -1.187,-6.044 26.257,-6.044l3.749 -18.683 -24.94 -0.091 7.774 -38.043c-25.6,-0.262 -19.507,-5.032 -24.229,18.425 -0.699,3.468 -1.373,6.596 -2.025,9.984 -1.748,9.083 -0.525,8.001 -3.673,9.667z"/>
   <polygon class="fil1" points="795.281,229.76 815.93,229.783 841.791,100.979 821.404,100.845 "/>
   <path class="fil1" d="M826.063 77.384l20.742 0.15 5.165 -25.933c-22.977,-0.068 -20.4,-1.494 -21.78,5.136l-4.127 20.647z"/>
  </g>
 </g>
</svg>
